<svg width="400" height="413" viewBox="0 0 400 413" fill="none" xmlns="http://www.w3.org/2000/svg">
<path d="M0.00132352 235.381L0.997909 85.3896C1.17831 58.2384 20.1599 34.9786 46.3778 29.7819L191.212 1.07354C226.017 -5.8253 258.315 21.4078 258.076 57.4519L257.079 207.442C256.899 234.594 237.918 257.854 211.7 263.051L66.8645 291.759C32.0595 298.658 -0.238161 271.425 0.00132352 235.381Z" fill="black" fill-opacity="0.2"/>
<path d="M70.9621 295.193L71.9586 145.202C72.1391 118.051 91.1206 94.7911 117.339 89.5944L262.174 60.886C296.979 53.9873 329.276 81.2203 329.036 117.264L328.04 267.256C327.86 294.407 308.878 317.667 282.66 322.863L137.825 351.572C103.02 358.471 70.7226 331.237 70.9621 295.193Z" fill="black" fill-opacity="0.5"/>
<path d="M141.923 355.061L142.921 205.07C143.101 177.917 162.082 154.659 188.299 149.461L333.134 120.753C367.939 113.854 400.238 141.087 399.998 177.131L399.002 327.122C398.821 354.274 379.839 377.534 353.622 382.731L208.787 411.439C173.982 418.337 141.684 391.105 141.923 355.061Z" fill="black" fill-opacity="0.8"/>
</svg>
