<svg width="251" height="18" viewBox="0 0 251 18" fill="none" xmlns="http://www.w3.org/2000/svg">
<g clip-path="url(#clip0_3_237)">
<path d="M150.639 0H155.207L159.698 11.7966H159.749L164.317 0H168.603L161.109 18H157.902L150.639 0ZM174.556 0H178.56V18H174.556V0ZM185.951 0H198.294V3.66102H189.954V7.01695H197.832V10.678H189.954V14.339H198.756V18H185.951V0ZM214.179 0H220.184C221.581 0.00244045 222.972 0.173187 224.326 0.508475C225.56 0.786206 226.726 1.30478 227.755 2.0339C228.744 2.77391 229.54 3.73817 230.075 4.84576C230.694 6.16084 230.998 7.60006 230.963 9.05085C230.989 10.3824 230.703 11.7019 230.126 12.9051C229.592 13.9871 228.826 14.9413 227.883 15.7017C226.913 16.4678 225.808 17.0489 224.624 17.4153C223.355 17.8142 222.029 18.0115 220.698 18H214.174L214.179 0ZM218.188 14.339H220.241C221.104 14.3452 221.966 14.2514 222.807 14.0593C223.548 13.891 224.247 13.5744 224.86 13.1288C225.453 12.6846 225.924 12.1009 226.231 11.4305C226.591 10.6171 226.766 9.73533 226.744 8.84746C226.759 8.05188 226.583 7.26411 226.231 6.54915C225.915 5.9144 225.454 5.36092 224.886 4.9322C224.288 4.49389 223.612 4.16973 222.894 3.97627C222.114 3.76421 221.307 3.65816 220.498 3.66102H218.137L218.188 14.339ZM236.732 0H243.507C244.301 0.00120939 245.095 0.0555702 245.883 0.162712C246.629 0.260921 247.353 0.484464 248.023 0.823729C248.65 1.1454 249.181 1.62397 249.563 2.21186C249.989 2.92586 250.194 3.74791 250.153 4.57627C250.191 5.4991 249.886 6.40369 249.296 7.11864C248.693 7.80352 247.904 8.30142 247.022 8.55254V8.60339C247.591 8.68122 248.143 8.8531 248.654 9.11186C249.129 9.34604 249.555 9.66495 249.912 10.0525C250.267 10.4396 250.54 10.8923 250.718 11.3847C250.909 11.9061 251.004 12.4572 251 13.0119C251.031 13.8473 250.817 14.6738 250.384 15.3915C249.98 16.0151 249.435 16.5373 248.793 16.9169C248.117 17.3193 247.375 17.6031 246.601 17.7559C245.803 17.9232 244.99 18.0084 244.174 18.0102H236.732V0ZM240.714 7.19492H243.614C243.922 7.19433 244.228 7.16023 244.528 7.09322C244.814 7.03161 245.087 6.91968 245.334 6.76271C245.575 6.61052 245.775 6.40074 245.914 6.15254C246.064 5.871 246.138 5.55569 246.129 5.23729C246.144 4.91191 246.06 4.5897 245.888 4.31186C245.73 4.07032 245.513 3.87257 245.257 3.73729C244.983 3.59446 244.689 3.49495 244.384 3.44237C244.071 3.38657 243.753 3.35765 243.435 3.35593H240.714V7.19492ZM240.714 14.6441H244.307C244.623 14.6424 244.938 14.6083 245.246 14.5424C245.552 14.4789 245.843 14.3581 246.104 14.1864C246.362 14.0162 246.578 13.7902 246.735 13.5254C246.91 13.2157 246.994 12.8632 246.976 12.5085C246.991 12.1434 246.879 11.7843 246.658 11.4915C246.441 11.2332 246.162 11.0323 245.847 10.9068C245.519 10.7689 245.174 10.6748 244.82 10.6271C244.472 10.5781 244.12 10.5526 243.768 10.5508H240.714V14.6441ZM104.703 17.9644H139.091C140.281 17.9644 141.46 17.7321 142.56 17.2809C143.659 16.8296 144.658 16.1682 145.5 15.3343C146.342 14.5005 147.009 13.5106 147.465 12.4211C147.92 11.3317 148.155 10.164 148.155 8.98475C148.155 6.60272 147.2 4.31819 145.5 2.63337C143.801 0.948548 141.495 0.00134806 139.091 0L104.734 0C102.329 0.00134806 100.024 0.948548 98.3244 2.63337C96.6247 4.31819 95.6699 6.60272 95.6699 8.98475C95.6699 11.3663 96.6248 13.6503 98.3247 15.3343C100.025 17.0183 102.33 17.9644 104.734 17.9644H104.703ZM5.18383 3.50847H0V0H14.371V3.50847H9.18718V18H5.18383V3.50847ZM20.0168 0H24.0201V6.71186H31.7702V0H35.7736V18H31.7702V10.2203H23.9945V18H20.0168V0ZM41.1627 0H53.4807V3.66102H45.166V7.01695H53.0444V10.678H45.166V14.339H53.9683V18H41.137L41.1627 0ZM69.3915 0H75.4478L79.6308 11.7458H79.6821L83.8908 0H89.9215V18H85.9181V4.19492H85.8668L81.0936 18H78.0397L73.4205 4.19492H73.3948V18H69.3915V0Z" fill="url(#paint0_linear_3_237)"/>
</g>
<defs>
<linearGradient id="paint0_linear_3_237" x1="0" y1="9" x2="251" y2="9" gradientUnits="userSpaceOnUse">
<stop stop-color="#90CEA1"/>
<stop offset="0.56" stop-color="#3CBEC9"/>
<stop offset="1" stop-color="#00B3E5"/>
</linearGradient>
<clipPath id="clip0_3_237">
<rect width="251" height="18" fill="white"/>
</clipPath>
</defs>
</svg>
